<svg width="52" height="52" viewBox="0 0 52 52" fill="none" xmlns="http://www.w3.org/2000/svg">
<rect width="52" height="52" rx="26" fill="#0070CC"/>
<path fill-rule="evenodd" clip-rule="evenodd" d="M34 11.4895C38.4 11.4895 42 15.0895 42 19.4895V28.4895C42 32.8895 38.4 36.4895 34 36.4895H19.3C18.4 36.4895 17.6 36.7895 16.9 37.2895L13.2 40.0895C12.3 40.7895 11.1 40.5895 10.4 39.6895C10.1 39.3895 10 38.8895 10 38.4895V19.4895C10 15.0895 13.6 11.4895 18 11.4895H34ZM31.4 21.5895C30.9 21.3895 30.3 21.5895 30.1 22.0895C29.4 23.4895 27.8 24.4895 26 24.4895C24.2 24.4895 22.6 23.4895 21.9 22.0895C21.7 21.5895 21.1 21.3895 20.6 21.5895C20.1 21.7895 19.9 22.3895 20.1 22.8895C21.1 24.9895 23.5 26.4895 26 26.4895C28.5 26.4895 30.9 25.0895 31.9 22.8895C32.1 22.3895 31.9 21.7895 31.4 21.5895Z" fill="white"/>
</svg>
