<svg width="35" height="36" viewBox="0 0 35 36" fill="none" xmlns="http://www.w3.org/2000/svg">
<rect x="0.435547" y="0.847168" width="34.3321" height="34.3336" rx="17.166" fill="#0070CC"/>
<path d="M26.0197 16.8157L9.89638 8.94982C9.74144 8.87432 9.56983 8.83948 9.39771 8.84859C9.22559 8.85769 9.05861 8.91045 8.9125 9.00188C8.76639 9.09331 8.64595 9.22042 8.56251 9.37124C8.47907 9.52206 8.43538 9.69163 8.43555 9.86399V9.89316C8.43563 10.0294 8.45242 10.1652 8.48555 10.2973L10.0322 16.484C10.0529 16.5664 10.0984 16.6405 10.1624 16.6964C10.2265 16.7522 10.3061 16.7872 10.3905 16.7965L17.188 17.5523C17.3011 17.5659 17.4053 17.6205 17.4809 17.7057C17.5565 17.7909 17.5983 17.9009 17.5983 18.0148C17.5983 18.1287 17.5565 18.2387 17.4809 18.3239C17.4053 18.4091 17.3011 18.4637 17.188 18.4773L10.3905 19.2332C10.3061 19.2425 10.2265 19.2774 10.1624 19.3333C10.0984 19.3891 10.0529 19.4632 10.0322 19.5457L8.48555 25.7315C8.45242 25.8637 8.43563 25.9994 8.43555 26.1357V26.1648C8.43552 26.3371 8.47932 26.5066 8.56281 26.6573C8.64631 26.808 8.76677 26.935 8.91286 27.0263C9.05895 27.1177 9.22586 27.1703 9.39792 27.1794C9.56997 27.1885 9.7415 27.1536 9.89638 27.0782L26.0189 19.2123C26.2434 19.1028 26.4327 18.9324 26.565 18.7205C26.6974 18.5086 26.7676 18.2638 26.7676 18.014C26.7676 17.7642 26.6974 17.5194 26.565 17.3075C26.4327 17.0956 26.2442 16.9252 26.0197 16.8157Z" fill="white"/>
</svg>
